General

Format                         : MPEG-4
Format profile                 : Base Media
Codec ID                       : isom
File size                      : 79.4 MiB
Duration                       : 2mn 30s
Overall bit rate mode          : Variable
Overall bit rate               : 4 432 Kbps
Encoded date                   : UTC 2012-07-25 05:45:10
Tagged date                    : UTC 2012-07-25 05:45:10

Video
ID                             : 1
Format                         : AVC
Format/Info                    : Advanced Video Codec
Format profile                 : High@L3.0
Format settings, CABAC         : Yes
Format settings, ReFrames      : 2 frames
Codec ID                       : avc1
Codec ID/Info                  : Advanced Video Coding
Duration                       : 2mn 30s
Bit rate                       : 4 202 Kbps
Maximum bit rate               : 6 101 Kbps
Width                          : 640 pixels
Height                         : 480 pixels
Display aspect ratio           : 4:3
Frame rate mode                : Constant
Frame rate                     : 29.970 fps
Color space                    : YUV
Chroma subsampling             : 4:2:0
Bit depth                      : 8 bits
Scan type                      : Progressive
Bits/(Pixel*Frame)             : 0.456
Stream size                    : 75.8 MiB (95%)


Audio
ID                             : 2
Format                         : AAC
Format/Info                    : Advanced Audio Codec
Format profile                 : LC
Codec ID                       : 40
Duration                       : 2mn 30s
Bit rate mode                  : Variable
Bit rate                       : 192 Kbps
Maximum bit rate               : 214 Kbps
Channel(s)                     : 2 channels
Channel positions              : Front: L R
Sampling rate                  : 44.1 KHz
Compression mode               : Lossy
Delay relative to video        : -667ms
Stream size                    : 3.45 MiB (4%)